<svg xmlns="http://www.w3.org/2000/svg" id="Слой_1" x="0" y="0" version="1.1" viewBox="0 0 841.9 595.3" xml:space="preserve">
  <style>
    .st0{fill:#53ab98}.st1{fill:#82ccb5}.st2{fill:#338977}.st3{fill:#212025}.st4{fill:#ffe35b}.st6{fill:#353a40}.st7{fill:#81382f}.st8{fill:#fff}.st9{fill:#692b22}
  </style>
  <path d="M547 94.2C568.8 38.1 609.1 0 609.1 0h-54.5l-40.4 82.8s-30.5-16.3-90.9-16.3-95.8 16.3-95.8 16.3C303.1 33.8 280.6 0 280.6 0h-47.9s40.3 38.1 62.2 94.2c0 0-148 124.7-257.3 400.2L0 536.6v58.7h841.9v-58.7l-37.6-42.2C695 219 547 94.2 547 94.2zM402.5 449.9c-134.1 0-265.4-17.6-265.4-17.6S228.8 94.2 421.8 94.2s282.4 338.1 282.4 338.1-167.6 17.6-301.7 17.6z" class="st0"/>
  <path d="M420.9 82.8c-218.7 0-322.8 397.5-322.8 397.5h640.5c.1 0-98.9-397.5-317.7-397.5zM137.1 432.3S228.8 94.2 421.9 94.2s282.4 338.1 282.4 338.1-167.6 17.6-301.8 17.6-265.4-17.6-265.4-17.6z" class="st1"/>
  <path d="M243.2 0s40 44.7 59.9 91.7l14.1-5S288.9 28.3 270 0h-26.8zm351.1 0s-40 44.7-59.9 91.7l-14.1-5S548.6 28.3 567.5 0h26.8z" class="st2"/>
  <g>
    <path d="M317.1 339.7s23.3-107 103.7-107 103.7 107 103.7 107S717 375 841.9 513.7v81.6H0v-89.6s126.8-120.5 317.1-166z" class="st1"/>
    <path d="M344 339s24.8-88.3 77-88.3 76.4 88.3 76.4 88.3-45.3 4.6-81.6 4.6S344 339 344 339z" class="st0"/>
    <path d="M353 339.4s21.9-80.7 67.9-80.7 67.4 80.7 67.4 80.7-40 4.2-72 4.2-63.3-4.2-63.3-4.2z" class="st3"/>
    <path d="M120.5 595.3S227.8 414 423.4 414s297.4 181.3 297.4 181.3H120.5z" class="st0"/>
    <path d="M204.6 595.3s77.2-150.4 218-150.4 214 150.4 214 150.4h-432z" class="st2"/>
    <path d="M30 519.7s71.7-60.6 160-105.7l21 52.1s-85 64.7-111 108.7l-70-55.1z" class="st3"/>
    <path d="M187 425l18.3 45.5c3.6-2.8 5.7-4.4 5.7-4.4L190 414C101.7 459.2 30 519.7 30 519.7l5.3 4.2c21.3-17 81.2-62.9 151.7-98.9z" class="st0"/>
    <path d="M811.3 519.7s-71.7-60.6-160-105.7l-21 52.1s85 64.7 111 108.7l70-55.1z" class="st3"/>
    <path d="M654.3 425L636 470.4c-3.6-2.8-5.7-4.4-5.7-4.4l21-52.1c88.3 45.2 160 105.7 160 105.7l-5.3 4.2c-21.3-16.9-81.2-62.8-151.7-98.8z" class="st0"/>
    <path d="M207.7 406.7l23.5 46.7s33.8-20.5 62.9-30.7l-9.5-44s-39.5 10.2-76.9 28zm425.7 0l-23.5 46.7s-33.8-20.5-62.9-30.7l9.5-44s39.4 10.2 76.9 28zM331.3 595.3s9.7-60.6 33.7-111.2c0 0 57.2-14 111.9 0 0 0 27.8 45.8 38.6 111.2H331.3z" class="st4"/>
    <path fill="#e5c652" d="M344.3 436.1l20.7 48s20.6 12 56 12 56-13.3 56-13.3l20.7-46.7H344.3z"/>
    <path d="M561.8 352.7s-48.6-21.9-84.9 40.1c0 0 1.1 5.9 7.7 8 0 0 29.7-41 67.6-30.4 0 .2 11.1-2.9 9.6-17.7zm30.5-42.7h-10l-3 9.3s18.7 24 15.7 66l3.3.2s9.3-36.8-6-75.5z" class="st6"/>
    <path d="M502.3 328.5l-8 2.5s-5.5 53 24.5 81.5c0 0-17.5-32-16.5-84z" class="st6"/>
    <path d="M529.2 356l-22.9 6.2 4.3 3.8 23.9-7-5.3-3z" class="st6"/>
    <path d="M502.3 328.5s-7 51 16.5 84l11-6.5s-22.5-31-16-75l-11.5-2.5zm84.5-9.5s16 26.5 11.5 66.5l11.5 2.5s7-49-17.5-78l-5.5 9z" class="st3"/>
    <path d="M571.9 346.3l20-2.7 4.6 2.7-22.6 6-2-6z" class="st6"/>
    <path d="M598.7 347l-2.2-.7-22.6 6 1 13.7 28-7-4.2-12z" class="st3"/>
    <path d="M540 380.8c-11.2-8.2-14.2-24-6.8-35.8 3.5-5.6 9.3-10.3 18.5-10.3 10.2 0 16.8 4.2 20.9 8.8 6.6 7.3 8.6 17.9 4.5 26.8-2.4 5.4-7.3 10.9-16.9 13.9-8.3 2.6-15 .4-20.2-3.4z" class="st3"/>
    <path d="M543.9 383.1c-9.8-7.9-12.5-21.9-6.4-32.8 3.4-6 9.1-11.2 18.7-11.2 8 0 13.7 2.6 17.7 6-4.1-5.2-10.9-10.4-22.3-10.4-11.1 0-17.1 6.8-20.4 13.9-4.7 10.2-2.3 22.2 5.9 29.9 2 1.9 4.3 3.6 7 4.9-.1-.2-.1-.2-.2-.3z" class="st6"/>
    <path d="M566.4 364.4c1-3.1.3-6.4-1.5-9-.2-.3-.4-.5-.6-.8.1.1.2.3.3.4-1.7-1.4-4.1-2.5-7.4-2.5-4.7 0-7.2 3.1-8.5 6.1-1.6 3.8-.8 8.2 2 11.2.4.5.9.9 1.4 1.3 1.9.9 4.1 1.2 6.8.4 4.7-1.5 6.7-4.5 7.5-7.1z" class="st7"/>
    <path d="M534.5 359l-23.9 7 3 17.3 25.2-5.7-4.3-18.6z" class="st3"/>
    <path d="M280.1 352.7s48.6-21.9 84.9 40.1c0 0-1.1 5.9-7.7 8 0 0-29.7-41-67.6-30.4 0 .2-11.1-2.9-9.6-17.7zM249.6 310h10l3 9.3s-18.7 24-15.7 66l-3.3.2s-9.3-36.8 6-75.5z" class="st6"/>
    <path d="M339.6 328.5l8 2.5s5.5 53-24.5 81.5c0 0 17.5-32 16.5-84z" class="st6"/>
    <path d="M312.7 356l22.9 6.2-4.3 3.8-23.9-7 5.3-3z" class="st6"/>
    <path d="M339.6 328.5s7 51-16.5 84l-11-6.5s22.5-31 16-75l11.5-2.5zm-84.5-9.5s-16 26.5-11.5 66.5l-11.5 2.5s-7-49 17.5-78l5.5 9z" class="st3"/>
    <path d="M270 346.3l-20-2.7-4.6 2.7 22.6 6 2-6z" class="st6"/>
    <path d="M243.2 347l2.2-.7 22.6 6-1 13.7-28-7 4.2-12z" class="st3"/>
    <path d="M301.9 380.8c11.2-8.2 14.2-24 6.8-35.8-3.5-5.6-9.3-10.3-18.5-10.3-10.2 0-16.8 4.2-20.9 8.8-6.6 7.3-8.6 17.9-4.5 26.8 2.4 5.4 7.3 10.9 16.9 13.9 8.3 2.6 15 .4 20.2-3.4z" class="st3"/>
    <path d="M298 383.1c9.8-7.9 12.5-21.9 6.4-32.8-3.4-6-9.1-11.2-18.7-11.2-8 0-13.7 2.6-17.7 6 4.1-5.2 10.9-10.4 22.3-10.4 11.1 0 17.1 6.8 20.4 13.9 4.7 10.2 2.3 22.2-5.9 29.9-2 1.9-4.3 3.6-7 4.9 0-.2.1-.2.2-.3z" class="st6"/>
    <path d="M275.5 364.4c-1-3.1-.3-6.4 1.5-9 .2-.3.4-.5.6-.8-.1.1-.2.3-.3.4 1.7-1.4 4.1-2.5 7.4-2.5 4.7 0 7.2 3.1 8.5 6.1 1.6 3.8.8 8.2-2 11.2-.4.5-.9.9-1.4 1.3-1.9.9-4.1 1.2-6.8.4-4.7-1.5-6.7-4.5-7.5-7.1z" class="st7"/>
    <path d="M307.4 359l23.9 7-3 17.3-25.2-5.7 4.3-18.6z" class="st3"/>
    <g>
      <path d="M344.3 436.1s9.6-70.2 24.2-77.1 96-6.4 104.7 0 24.4 77.1 24.4 77.1-83.5 20-153.3 0z" class="st4"/>
      <path d="M357.2 428l14.7-62h97.3l15.3 62H357.2z" class="st3"/>
    </g>
    <g>
      <path d="M620.4 409.5l-16.5 32.6s-23.6-14.3-43.9-21.4l6.6-30.8c0 .1 27.6 7.2 53.8 19.6z" class="st3"/>
      <path d="M565.1 397l-.2 1c11.7 3.8 34.4 11.6 51.2 20.1l.4-.9c-16.8-8.6-39.7-16.4-51.4-20.2zm43.6 35.7l.5-.9c-16.9-9.7-36.7-18.3-46.7-22.5l-.2 1c10 4.2 29.6 12.8 46.4 22.4z" class="st8"/>
    </g>
    <g>
      <path d="M220.7 409.5l16.5 32.6s23.6-14.3 43.9-21.4l-6.6-30.8c-.1.1-27.7 7.2-53.8 19.6z" class="st3"/>
      <path d="M275.9 397l.2 1c-11.7 3.8-34.4 11.6-51.2 20.1l-.4-.9c16.9-8.6 39.7-16.4 51.4-20.2zm-43.6 35.7l-.5-.9c16.9-9.7 36.7-18.3 46.7-22.5l.2 1c-10 4.2-29.6 12.8-46.4 22.4z" class="st8"/>
    </g>
    <g>
      <path d="M155 596.7s75.2-70 146.1-65c56.2 4 53 63.6 53 63.6L155 596.7z" class="st0"/>
      <path d="M135.1 596.7s75.2-70 146.1-65 40.9 63.6 40.9 63.6l-187 1.4z" class="st7"/>
      <path d="M180.3 596.7s48.9-57.1 95-53 26.6 51.9 26.6 51.9l-121.6 1.1z" class="st9"/>
      <path d="M61.8 369.8s12.1-62.2 59.8-54.4c47.7 7.8 51.7 49.2 63 87S156.3 467.7 109 463s-58.5-34.4-47.2-93.2z" class="st7"/>
      <path d="M82.3 483.2S182 422.6 205 464.9s59.7 104 80.4 130.4H89.3l-7-112.1z" class="st7"/>
      <path d="M56.3 595.3S25.1 480 43.3 387.8s109.3-79.4 123.1-10.8 40.9 135.5 98.9 218.2l-209 .1z" class="st1"/>
      <path d="M142.9 395.2c12.8 63.5 37 125.6 86.5 200.1h35.9c-58-82.8-85-149.6-98.9-218.2-11.1-54.7-71.3-73.9-104.4-32.7 32.6-13.6 72.2 7.4 80.9 50.8z" class="st0"/>
      <path d="M51.1 458.7s-1.7-94.7 34.7-89.4c27.5 4 44.2 80.6 44.2 80.6s-34.7 21.7-78.9 8.8z" class="st0"/>
      <path d="M62.1 458.7s-1.5-79.7 26.4-88.8c-.9-.3-1.8-.5-2.7-.6-36.4-5.3-34.7 89.4-34.7 89.4 12.3 3.6 23.9 4.5 34.1 4-7.2-.4-15-1.6-23.1-4z" class="st2"/>
      <path d="M686.8 596.7s-75.2-70-146.1-65c-56.2 4-53 63.6-53 63.6l199.1 1.4z" class="st0"/>
      <path d="M706.8 596.7s-75.2-70-146.1-65-40.9 63.6-40.9 63.6l187 1.4z" class="st7"/>
      <path d="M661.6 596.7s-48.9-57.1-95-53-26.6 51.9-26.6 51.9l121.6 1.1z" class="st9"/>
      <path d="M780.1 369.8s-12.1-62.2-59.8-54.4c-47.7 7.8-51.7 49.2-63 87-11.3 37.6 28.3 65.3 75.6 60.6s58.5-34.4 47.2-93.2z" class="st7"/>
      <path d="M759.6 483.2s-99.7-60.6-122.7-18.3-59.7 104-80.4 130.4h196.1l7-112.1z" class="st7"/>
      <path d="M785.6 595.3s31.2-115.3 13-207.5-109.3-79.4-123.2-10.8-40.9 135.5-98.9 218.2l209.1.1z" class="st1"/>
      <path d="M699 395.2c-12.8 63.5-37 125.6-86.5 200.1h-35.9c58-82.8 85-149.6 98.9-218.2 11.1-54.7 71.3-73.9 104.4-32.7-32.6-13.6-72.2 7.4-80.9 50.8z" class="st0"/>
      <path d="M790.8 458.7s1.7-94.7-34.7-89.4c-27.5 4-44.2 80.6-44.2 80.6s34.6 21.7 78.9 8.8z" class="st0"/>
      <path d="M779.8 458.7s1.5-79.7-26.4-88.8c.9-.3 1.8-.5 2.7-.6 36.4-5.3 34.7 89.4 34.7 89.4-12.3 3.6-23.9 4.5-34.1 4 7.2-.4 15-1.6 23.1-4z" class="st2"/>
    </g>
    <path fill="#ffe77f" d="M354.1 595.3s11.7-90.6 69.3-90.6 64.3 90.6 64.3 90.6H354.1z"/>
  </g>
</svg>
